
<?xml version="1.0"?>
<svg width="64" height="64" xmlns="http://www.w3.org/2000/svg" xmlns:svg="http://www.w3.org/2000/svg" xmlns:xlink="http://www.w3.org/1999/xlink">
 <g>
  <title>Layer 1</title>
  <g id="svg_1">
   <path fill="#000000" id="svg_2" d="m48.749001,3.801l-14.561001,0l0,-0.801c0,-0.829 -0.671001,-1.5 -1.5,-1.5s-1.5,0.671 -1.5,1.5l0,0.801l-14.562,0l0,30.579001l9.208,0l-0.434,1.757999l-3.834999,0c-0.829,0 -1.5,0.670998 -1.5,1.5s0.671,1.5 1.5,1.5l3.093,0l-5.160002,20.876999c-0.198999,0.804001 0.292002,1.617001 1.096001,1.816002c0.121,0.029999 0.242001,0.043999 0.361,0.043999c0.674,0 1.285999,-0.457001 1.455,-1.140999l5.337999,-21.597l3.439001,0l0,21.237c0,0.828999 0.671,1.5 1.5,1.5s1.5,-0.671001 1.5,-1.5l0,-21.236l3.643002,0l5.336998,21.597c0.168999,0.683998 0.781002,1.140999 1.455002,1.140999c0.118999,0 0.239998,-0.014999 0.361,-0.043999c0.803997,-0.199001 1.294998,-1.012001 1.095997,-1.816002l-5.159,-20.877998l3.297001,0c0.829002,0 1.5,-0.671001 1.5,-1.5s-0.670998,-1.5 -1.5,-1.5l-4.037998,0l-0.435001,-1.757999l9.004002,0l0,-30.579001l0.000999,0zm-2,28.579001l-7.499001,0l-1.544998,0l-1.545002,0l-1.972,0l-3,0l-1.768999,0l-1.545,0l-1.545,0l-7.702,0l0,-26.579001l12.560999,0l3,0l12.561001,0l0,26.579001zm-18.259001,3.757999l0.434999,-1.757999l2.263,0l0,1.757999l-2.698,0zm5.698,0l0,-1.757999l2.466999,0l0.435001,1.757999l-2.902,0z"/>
  </g>
  <rect transform="rotate(36.08506774902344 48.51468276977539,28.18566131591796) " id="svg_19" height="1.99765" width="13.278496" y="27.186837" x="41.875436" stroke-linecap="null" stroke-linejoin="null" stroke-dasharray="null" stroke-width="0" stroke="#000000" fill="#007fff"/>
  <use fill="#ff0000" x="99.412455" y="33.313748" transform="matrix(0.2222222238779068,0,0,0.2222222238779068,0,0) " xlink:href="#svg_7" id="svg_8"/>
  <use x="126.319837" y="22.791685" transform="rotate(81.30142211914062 45.813453674316406,25.938213348388672) matrix(0.2668047514448993,0,0,0.2668047514448993,3.4955922701474105,10.728271472062811) " xlink:href="#svg_17" id="svg_18"/>
 </g>
 <defs>
  <symbol viewBox="0 0 96 96" height="96px" width="96px" y="0px" x="0px" id="svg_7" xmlns:xlink="http://www.w3.org/1999/xlink" xmlns="http://www.w3.org/2000/svg">
   <g>
    <rect height="36.414" width="36.416" y="41.506" x="58.239"/>
    <path d="m51.457001,59.053001l0,-23.434002l21.415001,0c-1.223,-10.435999 -10.081001,-18.536999 -20.843002,-18.536999c-11.341999,0 -20.559,8.995998 -20.962,20.237999l13.525999,20.361c2.145,0.814999 4.449001,1.306999 6.864002,1.372002z"/>
    <polygon points="26.86,40.508 1.345,78.918 52.379,78.918  "/>
   </g>
  </symbol>
  <linearGradient spreadMethod="pad" id="svg_9">
   <stop offset="0" stop-opacity="0.996094" stop-color="#ff0000"/>
   <stop offset="0.487549" stop-opacity="0.996094" stop-color="#ffff00"/>
   <stop offset="1" stop-opacity="0.996094" stop-color="#0000ff"/>
   <stop offset="1" stop-opacity="0" stop-color="0"/>
  </linearGradient>
  <symbol viewBox="0 0 31.999 28.028" y="0px" x="0px" id="svg_17" xmlns:xlink="http://www.w3.org/1999/xlink" xmlns="http://www.w3.org/2000/svg">
   <g id="svg_16">
    <g>
     <path fill-rule="evenodd" clip-rule="evenodd" d="m31.132,0.857c-1.157,-1.142 -3.032999,-1.142 -4.188999,0l-17.179001,16.959999c-2.104,-0.046999 -5.016,0.698 -6.273,4.815001c-0.961,2.179001 -3.491,2.069 -3.491,2.069c5.253,5.827999 11.444,2.525 12.858,1.093c1.242001,-1.259001 1.421,-2.798 1.288,-4.029001l16.986,-16.771999c1.157001,-1.142 1.157001,-2.994 0,-4.136zm-19.671,23.558001c-0.984,0.912998 -5.382,2.948 -7.970001,0.974998c0,0 0.901,-0.702999 1.583,-2.113998c1.629,-4.327002 5.689001,-3.687 5.689001,-3.687l1.396,1.379c0.014,0.013 1.042999,1.833 -0.698,3.447001zm2.094999,-4.826c-0.129,-0.127001 -1.396,-1.379002 -1.396,-1.379002l2.095,-2.067999l1.396,1.379l-2.095,2.068001zm16.179001,-15.975001l-12.688,12.528l-1.396001,-1.379l12.688001,-12.527c0.386,-0.381 1.011,-0.381 1.396,0c0.386,0.38 0.386,0.998 0,1.378z"/>
    </g>
   </g>
   <g/>
   <g/>
   <g/>
   <g/>
   <g/>
   <g/>
   <g/>
   <g/>
   <g/>
   <g/>
   <g/>
   <g/>
   <g/>
   <g/>
   <g/>
  </symbol>
 </defs>
</svg>
